<svg xmlns="http://www.w3.org/2000/svg" xml:space="preserve" viewBox="0 0 512 512"><path d="M476.2 261.1c0-14.8-1.3-28.9-3.6-42.6H260.8v84.6h121.3c-5.4 27.8-21.4 51.2-45 67.1v56.2h72.4c42.3-39.2 66.7-96.9 66.7-165.3" style="fill:#4285f4"/><path d="M260.8 481c60.8 0 111.6-20.2 148.7-54.6l-72.4-56.2c-20.2 13.5-45.9 21.8-76.3 21.8-58.7 0-108.4-39.6-126.2-93H60v57.9C96.9 430.4 172.8 481 260.8 481" style="fill:#34a853"/><path d="M134.6 298.9c-4.7-13.5-7.1-27.9-7.1-42.9s2.6-29.4 7.1-42.9v-57.9H60C44.6 185.5 35.8 219.6 35.8 256s8.8 70.5 24.2 100.9z" style="fill:#fbbc05"/><path d="M260.8 120.1c33.2 0 62.8 11.4 86.2 33.8l64.1-64.1C372.3 53.3 321.5 31 260.8 31 172.8 31 96.9 81.6 60 155.1l74.6 57.9c17.8-53.4 67.5-92.9 126.2-92.9" style="fill:#ea4335"/></svg>