<svg xmlns="http://www.w3.org/2000/svg" width="800" height="800" fill="#3c1d1e" viewBox="0 0 512 512"><path d="M255.5 48q65.768 0 121.656 25.6t88.366 69.62T498 239.252t-32.478 96.168q-32.477 44.156-88.231 69.755-55.753 25.6-121.791 25.6-20.84 0-43.033-2.98-96.35 66.911-102.575 67.723-2.978 1.084-5.684-.27-1.083-.813-1.624-2.168-.541-1.354-.541-2.438v-1.083q1.624-10.565 24.629-88.041-52.235-26.006-82.953-68.943Q12.999 289.639 13 239.252q0-52.013 32.478-96.032Q77.955 99.2 133.844 73.6T255.5 48"/></svg>